<svg width="25" height="25" viewBox="0 0 25 25" fill="none" xmlns="http://www.w3.org/2000/svg">
<g opacity="0.6">
<path d="M4.43361 17.2849C3.27042 15.3224 2.86354 13.0029 3.28938 10.7616C3.71522 8.52042 4.94448 6.5117 6.74639 5.11259C8.5483 3.71348 10.7989 3.02019 13.0758 3.16288C15.3526 3.30557 17.4991 4.27442 19.1122 5.88756C20.7254 7.50069 21.6942 9.64716 21.8369 11.924C21.9796 14.2009 21.2863 16.4515 19.8872 18.2534C18.4881 20.0553 16.4794 21.2846 14.2382 21.7104C11.9969 22.1362 9.67735 21.7294 7.71486 20.5662V20.5662L4.47268 21.4841C4.33984 21.523 4.199 21.5254 4.06492 21.4911C3.93084 21.4568 3.80845 21.3871 3.71059 21.2892C3.61272 21.1913 3.54299 21.069 3.50869 20.9349C3.47439 20.8008 3.47679 20.6599 3.51564 20.5271L4.43361 17.2849Z" stroke="black" stroke-width="2" stroke-linecap="round" stroke-linejoin="round"/>
</g>
</svg>
