<svg width="19" height="21" viewBox="0 0 19 21" fill="none" xmlns="http://www.w3.org/2000/svg">
<path d="M17.8333 6.33352L11.5833 0.854356C11.0104 0.341903 10.2687 0.0585938 9.49998 0.0585938C8.7313 0.0585938 7.98958 0.341903 7.41664 0.854356L1.16664 6.33352C0.835777 6.62943 0.571748 6.99244 0.392135 7.39836C0.212522 7.80429 0.121448 8.24382 0.124977 8.68769V17.7919C0.124977 18.6207 0.454217 19.4155 1.04027 20.0016C1.62632 20.5876 2.42118 20.9169 3.24998 20.9169H15.75C16.5788 20.9169 17.3736 20.5876 17.9597 20.0016C18.5457 19.4155 18.875 18.6207 18.875 17.7919V8.67727C18.877 8.23515 18.7852 7.79763 18.6057 7.39361C18.4261 6.98959 18.1629 6.62827 17.8333 6.33352ZM11.5833 18.8335H7.41664V13.6252C7.41664 13.3489 7.52639 13.084 7.72174 12.8886C7.91709 12.6933 8.18204 12.5835 8.45831 12.5835H10.5416C10.8179 12.5835 11.0829 12.6933 11.2782 12.8886C11.4736 13.084 11.5833 13.3489 11.5833 13.6252V18.8335ZM16.7916 17.7919C16.7916 18.0681 16.6819 18.3331 16.4865 18.5284C16.2912 18.7238 16.0262 18.8335 15.75 18.8335H13.6666V13.6252C13.6666 12.7964 13.3374 12.0015 12.7514 11.4155C12.1653 10.8294 11.3704 10.5002 10.5416 10.5002H8.45831C7.62951 10.5002 6.83465 10.8294 6.2486 11.4155C5.66255 12.0015 5.33331 12.7964 5.33331 13.6252V18.8335H3.24998C2.97371 18.8335 2.70876 18.7238 2.51341 18.5284C2.31806 18.3331 2.20831 18.0681 2.20831 17.7919V8.67727C2.2085 8.52937 2.24018 8.38321 2.30124 8.2485C2.36231 8.1138 2.45136 7.99364 2.56248 7.89602L8.81248 2.42727C9.00257 2.26027 9.24695 2.16817 9.49998 2.16817C9.75301 2.16817 9.99739 2.26027 10.1875 2.42727L16.4375 7.89602C16.5486 7.99364 16.6376 8.1138 16.6987 8.2485C16.7598 8.38321 16.7915 8.52937 16.7916 8.67727V17.7919Z" fill="black"/>
</svg>
