<svg width="25" height="25" viewBox="0 0 25 25" fill="none" xmlns="http://www.w3.org/2000/svg">
<g opacity="0.6">
<path d="M16.3646 13.2396C17.3859 12.4361 18.1313 11.3343 18.4972 10.0875C18.8631 8.84061 18.8312 7.51072 18.4061 6.28281C17.9809 5.05489 17.1837 3.99002 16.1251 3.23634C15.0666 2.48265 13.7995 2.07764 12.5001 2.07764C11.2006 2.07764 9.93351 2.48265 8.87498 3.23634C7.81646 3.99002 7.01917 5.05489 6.59403 6.28281C6.16889 7.51072 6.13705 8.84061 6.50293 10.0875C6.86882 11.3343 7.61423 12.4361 8.63547 13.2396C6.88555 13.9407 5.35869 15.1035 4.21765 16.6041C3.07662 18.1047 2.36419 19.8868 2.15631 21.7604C2.14126 21.8972 2.1533 22.0357 2.19175 22.1678C2.2302 22.2999 2.29429 22.4232 2.38038 22.5306C2.55424 22.7474 2.80712 22.8863 3.08339 22.9167C3.35966 22.9471 3.63668 22.8665 3.85352 22.6926C4.07036 22.5188 4.20925 22.2659 4.23964 21.9896C4.46838 19.9534 5.43931 18.0727 6.96695 16.7071C8.49459 15.3415 10.4718 14.5865 12.5209 14.5865C14.57 14.5865 16.5472 15.3415 18.0748 16.7071C19.6025 18.0727 20.5734 19.9534 20.8021 21.9896C20.8305 22.2456 20.9526 22.482 21.145 22.6532C21.3373 22.8244 21.5863 22.9183 21.8438 22.9167H21.9584C22.2314 22.8853 22.481 22.7472 22.6527 22.5326C22.8244 22.318 22.9043 22.0442 22.8751 21.7709C22.6662 19.8919 21.9499 18.1052 20.803 16.6023C19.6561 15.0994 18.1218 13.937 16.3646 13.2396ZM12.5001 12.5C11.676 12.5 10.8704 12.2557 10.1852 11.7978C9.49998 11.34 8.96592 10.6892 8.65056 9.92788C8.33519 9.16652 8.25268 8.32874 8.41345 7.52049C8.57422 6.71223 8.97106 5.9698 9.55378 5.38708C10.1365 4.80436 10.8789 4.40753 11.6872 4.24676C12.4954 4.08598 13.3332 4.1685 14.0946 4.48386C14.8559 4.79923 15.5067 5.33328 15.9645 6.01849C16.4224 6.70369 16.6667 7.50927 16.6667 8.33336C16.6667 9.43843 16.2277 10.4982 15.4463 11.2796C14.6649 12.061 13.6051 12.5 12.5001 12.5Z" fill="black"/>
</g>
</svg>
