<svg width="25" height="25" viewBox="0 0 25 25" fill="none" xmlns="http://www.w3.org/2000/svg">
<path d="M5.48834 10.1564C5.48704 9.23017 5.66899 8.31287 6.02371 7.4573C6.37844 6.60173 6.89893 5.82479 7.55521 5.17123C8.21149 4.51768 8.99058 4.00042 9.84762 3.64926C10.7047 3.29809 11.6227 3.11996 12.5489 3.12511C16.4161 3.15441 19.5118 6.3673 19.5118 10.2442V10.9376C19.5118 14.4337 20.2442 16.465 20.8887 17.5782C20.9572 17.6968 20.9933 17.8313 20.9934 17.9682C20.9935 18.1051 20.9577 18.2396 20.8894 18.3583C20.8212 18.477 20.7229 18.5756 20.6046 18.6444C20.4862 18.7132 20.3518 18.7496 20.2149 18.7501H4.78521C4.64831 18.7496 4.51393 18.7132 4.39555 18.6444C4.27717 18.5756 4.17894 18.477 4.11069 18.3583C4.04245 18.2396 4.00659 18.1051 4.00671 17.9682C4.00684 17.8313 4.04293 17.6968 4.11138 17.5782C4.75592 16.465 5.48834 14.4337 5.48834 10.9376V10.1564Z" stroke="black" stroke-width="2" stroke-linecap="round" stroke-linejoin="round"/>
<path d="M9.375 18.75V19.5312C9.375 20.3601 9.70424 21.1549 10.2903 21.741C10.8763 22.327 11.6712 22.6562 12.5 22.6562C13.3288 22.6562 14.1237 22.327 14.7097 21.741C15.2958 21.1549 15.625 20.3601 15.625 19.5312V18.75" stroke="black" stroke-width="2" stroke-linecap="round" stroke-linejoin="round"/>
</svg>
