<svg width="26" height="26" viewBox="0 0 26 26" fill="none" xmlns="http://www.w3.org/2000/svg">
<path fill-rule="evenodd" clip-rule="evenodd" d="M12.4997 0.599718C13.2668 0.599126 13.8891 1.22047 13.8897 1.98753L13.8972 11.7098L23.6194 11.7022C24.3865 11.7016 25.0088 12.323 25.0094 13.0901C25.01 13.8571 24.3886 14.4794 23.6216 14.48L13.8994 14.4875L13.9069 24.2097C13.9075 24.9768 13.2861 25.5991 12.5191 25.5997C11.752 25.6003 11.1297 24.979 11.1291 24.2119L11.1216 14.4897L1.39937 14.4972C0.632312 14.4978 0.0100053 13.8764 0.00941266 13.1094C0.00882007 12.3423 0.630166 11.72 1.39723 11.7194L11.1194 11.7119L11.1119 1.98968C11.1113 1.22262 11.7327 0.600311 12.4997 0.599718Z" fill="black"/>
</svg>
