<svg width="48" height="48" viewBox="0 0 48 48" fill="none" xmlns="http://www.w3.org/2000/svg">
<path d="M24 44C35.0457 44 44 35.0457 44 24C44 12.9543 35.0457 4 24 4C12.9543 4 4 12.9543 4 24C4 35.0457 12.9543 44 24 44Z" stroke="#828282" stroke-width="2"/>
<g opacity="0.6">
<path fill-rule="evenodd" clip-rule="evenodd" d="M23.9997 13.6993C24.6134 13.6988 25.1112 14.1959 25.1117 14.8096L25.1177 22.5873L32.8955 22.5813C33.5091 22.5809 34.007 23.0779 34.0075 23.6916C34.0079 24.3052 33.5109 24.8031 32.8972 24.8035L25.1194 24.8096L25.1254 32.5873C25.1259 33.201 24.6288 33.6988 24.0152 33.6993C23.4015 33.6998 22.9037 33.2027 22.9032 32.589L22.8972 24.8113L15.1194 24.8173C14.5058 24.8178 14.008 24.3207 14.0075 23.707C14.007 23.0934 14.5041 22.5955 15.1177 22.5951L22.8955 22.5891L22.8895 14.8113C22.889 14.1976 23.3861 13.6998 23.9997 13.6993Z" fill="black"/>
</g>
</svg>
