<svg width="25" height="25" viewBox="0 0 25 25" fill="none" xmlns="http://www.w3.org/2000/svg">
<g opacity="0.6">
<path d="M12.5 10.5469V21.0938" stroke="black" stroke-width="2" stroke-linecap="round" stroke-linejoin="round"/>
<path d="M12.5 3.90625V6.64062" stroke="black" stroke-width="2" stroke-linecap="round" stroke-linejoin="round"/>
<path d="M12.5 10.5469C13.5787 10.5469 14.4531 9.67243 14.4531 8.59375C14.4531 7.51507 13.5787 6.64062 12.5 6.64062C11.4213 6.64062 10.5469 7.51507 10.5469 8.59375C10.5469 9.67243 11.4213 10.5469 12.5 10.5469Z" stroke="black" stroke-width="2" stroke-linecap="round" stroke-linejoin="round"/>
<path d="M19.5312 18.3594V21.0938" stroke="black" stroke-width="2" stroke-linecap="round" stroke-linejoin="round"/>
<path d="M19.5312 3.90625V14.4531" stroke="black" stroke-width="2" stroke-linecap="round" stroke-linejoin="round"/>
<path d="M19.5312 18.3594C20.6099 18.3594 21.4844 17.4849 21.4844 16.4062C21.4844 15.3276 20.6099 14.4531 19.5312 14.4531C18.4526 14.4531 17.5781 15.3276 17.5781 16.4062C17.5781 17.4849 18.4526 18.3594 19.5312 18.3594Z" stroke="black" stroke-width="2" stroke-linecap="round" stroke-linejoin="round"/>
<path d="M5.46875 15.2344V21.0938" stroke="black" stroke-width="2" stroke-linecap="round" stroke-linejoin="round"/>
<path d="M5.46875 3.90625V11.3281" stroke="black" stroke-width="2" stroke-linecap="round" stroke-linejoin="round"/>
<path d="M5.46875 15.2344C6.54743 15.2344 7.42188 14.3599 7.42188 13.2812C7.42188 12.2026 6.54743 11.3281 5.46875 11.3281C4.39007 11.3281 3.51562 12.2026 3.51562 13.2812C3.51562 14.3599 4.39007 15.2344 5.46875 15.2344Z" stroke="black" stroke-width="2" stroke-linecap="round" stroke-linejoin="round"/>
</g>
</svg>
